<svg xmlns="http://www.w3.org/2000/svg" viewBox="0 0 128 128">
  <defs>
    <linearGradient id="bg" x1="0%" y1="0%" x2="100%" y2="100%">
      <stop offset="0%" stop-color="#4f46e5"/>
      <stop offset="100%" stop-color="#7c3aed"/>
    </linearGradient>
  </defs>

  <!-- Background rounded rect -->
  <rect width="128" height="128" rx="26" fill="url(#bg)"/>

  <!--
    Phosphor Icons "bridge" — MIT License
    https://github.com/phosphor-icons/core
    Original viewBox: 0 0 256 256
    Scaled 0.39x and centred on the 128x128 canvas
  -->
  <g transform="translate(14, 18) scale(0.39)" fill="white">
    <path d="M232,160H200V101.34a71.89,71.89,0,0,0,29,21.42,8,8,0,0,0,6-14.83A55.78,55.78,0,0,1,200,56a8,8,0,0,0-16,0A56,56,0,0,1,72,56a8,8,0,0,0-16,0,55.78,55.78,0,0,1-35,51.93,8,8,0,0,0,6,14.83,71.89,71.89,0,0,0,29-21.42V160H24a8,8,0,0,0,0,16H56v24a8,8,0,0,0,16,0V176H184v24a8,8,0,0,0,16,0V176h32a8,8,0,0,0,0-16Zm-88-33.8V160H112V126.2a72,72,0,0,0,32,0Zm-72-25a72.47,72.47,0,0,0,24,19.27V160H72ZM160,160V120.48a72.47,72.47,0,0,0,24-19.27V160Z"/>
  </g>
</svg>
